<?xml version="1.0" standalone="no"?>
<!DOCTYPE svg PUBLIC "-//W3C//DTD SVG 20010904//EN"
 "http://www.w3.org/TR/2001/REC-SVG-20010904/DTD/svg10.dtd">
<svg version="1.0" xmlns="http://www.w3.org/2000/svg"
 width="280.000000pt" height="280.000000pt" viewBox="0 0 280.000000 280.000000"
 preserveAspectRatio="xMidYMid meet">
<metadata>
Created by potrace 1.11, written by Peter Selinger 2001-2013
</metadata>
<g transform="translate(0.000000,280.000000) scale(0.100000,-0.100000)"
fill="#000000" stroke="none">
<path d="M1088 2203 c-21 -2 -38 -8 -38 -12 0 -19 32 -32 111 -44 77 -12 85
-15 102 -44 17 -31 48 -134 88 -295 l18 -77 -45 -128 c-25 -70 -53 -141 -63
-158 -9 -16 -27 -61 -40 -100 -13 -38 -29 -77 -36 -85 -7 -8 -20 -41 -29 -74
-17 -57 -53 -106 -78 -106 -13 0 -24 29 -110 280 -27 80 -63 181 -80 225 -65
171 -177 507 -172 520 3 8 31 19 62 26 96 19 107 24 110 48 l4 23 -144 -8
c-78 -4 -225 -7 -325 -6 -173 2 -182 1 -188 -18 -10 -32 3 -40 67 -40 120 0
162 -40 213 -208 59 -191 200 -592 249 -707 63 -147 106 -260 106 -279 0 -11
12 -48 26 -84 14 -36 28 -81 30 -101 8 -57 38 -151 49 -151 21 1 44 50 75 155
18 60 66 186 107 280 41 93 86 199 99 235 12 36 43 121 67 190 59 166 75 170
112 25 9 -38 27 -101 40 -140 12 -38 34 -106 48 -150 14 -44 31 -106 37 -138
7 -33 18 -73 25 -90 12 -29 55 -209 75 -311 8 -38 26 -60 42 -50 11 7 41 76
73 169 15 43 47 122 72 175 84 178 282 664 323 795 13 39 38 102 56 141 19 39
34 74 34 78 0 3 14 35 30 70 29 60 34 66 78 80 26 8 80 18 120 22 76 7 99 22
71 49 -11 10 -39 11 -134 5 -66 -4 -192 -5 -281 -2 -117 3 -163 2 -168 -7 -9
-14 51 -41 93 -41 20 0 43 -11 67 -32 l37 -32 -7 -75 c-4 -48 -15 -94 -32
-130 -14 -31 -37 -87 -50 -125 -13 -38 -31 -80 -39 -92 -8 -12 -21 -54 -29
-92 -8 -39 -28 -101 -44 -139 -17 -37 -40 -102 -52 -143 -52 -178 -110 -267
-125 -192 -3 15 -13 41 -20 57 -14 28 -76 257 -96 353 -5 24 -12 49 -16 55 -4
6 -13 39 -20 72 -6 33 -23 103 -37 155 -43 168 -66 275 -66 308 0 41 22 52
103 52 68 0 95 15 83 46 -5 14 -29 15 -194 12 -103 -1 -236 0 -297 3 -60 4
-127 5 -147 2z"/>
</g>
</svg>
